<?xml version="1.0" encoding="UTF-8"?>
<svg width="19px" height="20px" viewBox="0 0 19 20" version="1.1" xmlns="http://www.w3.org/2000/svg" xmlns:xlink="http://www.w3.org/1999/xlink">
    <!-- Generator: sketchtool 53.2 (72643) - https://sketchapp.com -->
    <title>2F5D2C66-CEA3-406C-B4A8-8C9113C89761</title>
    <desc>Created with sketchtool.</desc>
    <g id="Symbols" stroke="none" stroke-width="1" fill="none" fill-rule="evenodd">
        <g id="icon/calendar/small" fill="#464646" fill-rule="nonzero">
            <g id="CALENDAR-">
                <path d="M17.4487263,2.47706422 L16.3318093,2.47706422 L16.3318093,1.27129751 C16.3318093,0.576671035 15.7981711,0 15.1280209,0 L13.8373612,0 C13.1796212,0 12.6335728,0.563564875 12.6335728,1.27129751 L12.6335728,2.47706422 L6.42847812,2.47706422 L6.42847812,1.27129751 C6.42847812,0.576671035 5.89483997,0 5.22468975,0 L3.93403005,0 C3.27629001,0 2.73024167,0.563564875 2.73024167,1.27129751 L2.73024167,2.47706422 L1.55127368,2.47706422 C0.694970607,2.47706422 0,3.21100917 0,4.11533421 L0,18.36173 C0,19.266055 0.694970607,20 1.55127368,20 L17.4487263,20 C18.3050294,20 19,19.266055 19,18.36173 L19,4.11533421 C19,3.21100917 18.3050294,2.47706422 17.4487263,2.47706422 Z M13.626388,1.27129751 C13.626388,1.15334207 13.7132593,1.04849279 13.8373612,1.04849279 L15.1280209,1.04849279 C15.2397126,1.04849279 15.3389941,1.14023591 15.3389941,1.27129751 L15.3389941,3.81389253 L13.626388,3.81389253 L13.626388,1.27129751 L13.626388,1.27129751 Z M3.72305683,1.27129751 C3.72305683,1.15334207 3.80992815,1.04849279 3.93403005,1.04849279 L5.22468975,1.04849279 C5.33638145,1.04849279 5.43566297,1.14023591 5.43566297,1.27129751 L5.43566297,3.81389253 L3.72305683,3.81389253 L3.72305683,1.27129751 L3.72305683,1.27129751 Z M1.55127368,3.52555701 L2.73024167,3.52555701 L2.73024167,4.84927916 L6.42847812,4.84927916 L6.42847812,3.52555701 L12.6335728,3.52555701 L12.6335728,4.84927916 L16.3318093,4.84927916 L16.3318093,3.52555701 L17.4487263,3.52555701 C17.7589811,3.52555701 18.0071848,3.78768021 18.0071848,4.11533421 L18.0071848,7.10353866 L0.992815153,7.10353866 L0.992815153,4.11533421 C0.992815153,3.78768021 1.24101894,3.52555701 1.55127368,3.52555701 Z M17.4487263,18.9515072 L1.55127368,18.9515072 C1.24101894,18.9515072 0.992815153,18.689384 0.992815153,18.36173 L0.992815153,8.15203145 L18.0071848,8.15203145 L18.0071848,18.36173 C18.0071848,18.689384 17.7589811,18.9515072 17.4487263,18.9515072 Z" id="Shape"></path>
                <rect id="Rectangle" x="10" y="10" width="2" height="1"></rect>
                <rect id="Rectangle" x="14" y="10" width="2" height="1"></rect>
                <rect id="Rectangle" x="10" y="12" width="2" height="1"></rect>
                <rect id="Rectangle" x="6" y="12" width="2" height="1"></rect>
                <rect id="Rectangle" x="14" y="12" width="2" height="1"></rect>
                <rect id="Rectangle" x="10" y="14" width="2" height="1"></rect>
                <rect id="Rectangle" x="6" y="14" width="2" height="1"></rect>
                <rect id="Rectangle" x="14" y="14" width="2" height="1"></rect>
            </g>
        </g>
    </g>
</svg>