<?xml version="1.0" encoding="UTF-8"?>
<svg width="20px" height="17px" viewBox="0 0 20 17" version="1.1" xmlns="http://www.w3.org/2000/svg" xmlns:xlink="http://www.w3.org/1999/xlink">
    <!-- Generator: sketchtool 53.2 (72643) - https://sketchapp.com -->
    <title>E91B7564-ECD1-4D65-AF3D-E02973471874</title>
    <desc>Created with sketchtool.</desc>
    <g id="Page-1" stroke="none" stroke-width="1" fill="none" fill-rule="evenodd" stroke-linecap="round" stroke-linejoin="round">
        <g id="meeting-notes_popup" transform="translate(-322.000000, -118.000000)" stroke="#FFFFFF">
            <g id="components/header">
                <g id="search" transform="translate(20.000000, 102.000000)">
                    <g id="search-field">
                        <g id="icon/camera" transform="translate(302.000000, 16.326531)">
                            <path d="M14.2031,3.1170408 L12.7971,0.965000001 C12.6111,0.680306126 12.2991,0.509897964 11.9651,0.509897964 L7.0351,0.509897964 C6.7011,0.509897964 6.3891,0.680306126 6.2031,0.965000001 L4.7971,3.1170408 C4.6111,3.40071426 4.2991,3.57112242 3.9651,3.57112242 L1.5001,3.57112242 C0.9481,3.57112242 0.5001,4.02826528 0.5001,4.59153058 L0.5001,14.7956121 C0.5001,15.3598978 0.9481,15.8160203 1.5001,15.8160203 L17.5001,15.8160203 C18.0521,15.8160203 18.5001,15.3598978 18.5001,14.7956121 L18.5001,4.59153058 C18.5001,4.02826528 18.0521,3.57112242 17.5001,3.57112242 L15.0351,3.57112242 C14.7011,3.57112242 14.3891,3.40071426 14.2031,3.1170408 Z M13.5,8.67346924 C13.5,10.9275509 11.709,12.7551019 9.5,12.7551019 C7.291,12.7551019 5.5,10.9275509 5.5,8.67346924 C5.5,6.41938763 7.291,4.59183663 9.5,4.59183663 C11.709,4.59183663 13.5,6.41938763 13.5,8.67346924 Z" id="lineart"></path>
                        </g>
                    </g>
                </g>
            </g>
        </g>
    </g>
</svg>