<?xml version="1.0" encoding="utf-8"?>
<!-- Generator: Adobe Illustrator 23.0.2, SVG Export Plug-In . SVG Version: 6.00 Build 0)  -->
<svg version="1.1" id="Layer_1" xmlns="http://www.w3.org/2000/svg" xmlns:xlink="http://www.w3.org/1999/xlink" x="0px" y="0px"
	 viewBox="0 0 30 30" style="enable-background:new 0 0 30 30;" xml:space="preserve">
<style type="text/css">
	.st0{fill:#464646;}
	.st1{fill-rule:evenodd;clip-rule:evenodd;fill:#464646;}
</style>
<title>7974577F-E14E-474E-A931-0C01E5E117DF</title>
<desc>Created with sketchtool.</desc>
<g id="Page-1">
	<g transform="translate(27.000000, 17.000000)">
		<g id="CAR-Copy" transform="translate(2.057143, 2.057143)">
			<path id="Shape" class="st0" d="M-17.9-9.8h7.7c0.8,0,1.3,0.3,2,1.3L-7.1-6h1.8c0.3,0,0.8,1.4-1.1,1.5L-5.8-3c0,1.9,0,3.8,0,5.6
				c0,0.4-0.3,0.7-0.7,0.7h-2.4c-0.4,0-0.7-0.3-0.7-0.7V1h-9v1.6c0,0.4-0.3,0.7-0.7,0.7h-2.4c-0.4,0-0.7-0.3-0.7-0.7
				c0-1.9,0-3.8,0-5.6l0.6-1.5c-1.8,0-1.3-1.5-1.1-1.5h1.8l1.1-2.6C-19.2-9.5-18.7-9.8-17.9-9.8z M-8.3-2.9c-0.6,0-1.1,0.5-1.1,1.1
				c0,0.6,0.5,1.1,1.1,1.1c0.6,0,1.1-0.5,1.1-1.1C-7.2-2.4-7.7-2.9-8.3-2.9z M-19.8-2.9c-0.6,0-1.1,0.5-1.1,1.1
				c0,0.6,0.5,1.1,1.1,1.1c0.6,0,1.1-0.5,1.1-1.1C-18.6-2.4-19.1-2.9-19.8-2.9z M-20.1-5.2H-8C-8.4-6-8.7-6.8-9.2-7.7
				c-0.3-0.4-0.5-0.8-1-0.9h-7.7c-0.5,0-0.8,0.4-1,0.9C-19.4-6.8-19.7-6-20.1-5.2z"/>
			<path id="Combined-Shape-Copy" class="st1" d="M-14.1,10.4c-8,0-14.5-6.5-14.5-14.5s6.5-14.5,14.5-14.5S0.4-12,0.4-4.1
				S-6.1,10.4-14.1,10.4z M-14.1,9.5c7.5,0,13.6-6.1,13.6-13.6s-6.1-13.6-13.6-13.6s-13.6,6.1-13.6,13.6S-21.6,9.5-14.1,9.5z"/>
		</g>
	</g>
</g>
</svg>
