<?xml version="1.0" encoding="UTF-8"?>
<svg width="114px" height="114px" viewBox="0 0 114 114" version="1.1" xmlns="http://www.w3.org/2000/svg" xmlns:xlink="http://www.w3.org/1999/xlink">
    <!-- Generator: sketchtool 53.2 (72643) - https://sketchapp.com -->
    <title>7974577F-E14E-474E-A931-0C01E5E117DF</title>
    <desc>Created with sketchtool.</desc>
    <g id="Page-1" stroke="none" stroke-width="1" fill="none" fill-rule="evenodd">
        <g id="login" transform="translate(-194.000000, -338.000000)">
            <g id="components/car-mode" transform="translate(194.000000, 338.000000)">
                <rect id="Rectangle-Copy" stroke="#FFFFFF" stroke-width="2" x="1" y="1" width="112" height="112" rx="15"></rect>
                <g id="button/car/black" transform="translate(27.000000, 17.000000)" fill="#464646" fill-rule="evenodd" stroke-width="1">
                    <g id="CAR-Copy" transform="translate(2.057143, 2.057143)">
                        <path d="M20.5157472,16.7868469 L35.3546218,16.7868469 C36.9812203,16.7868469 37.932627,17.3699671 39.2830106,19.2267446 L41.4466935,24.1986116 L44.8379978,24.1986116 C45.3443917,24.1986116 46.3264889,26.9454147 42.7663866,27.0374863 L43.9786628,29.9223968 C43.9786628,33.5285349 43.932627,37.1960541 43.932627,40.8021922 C43.932627,41.5694556 43.3495068,42.1525758 42.5822433,42.1525758 L37.9786628,42.1525758 C37.2574351,42.1525758 36.6282791,41.5694556 36.6282791,40.8021922 L36.6282791,37.7791743 L19.2420899,37.7791743 L19.2420899,40.8021922 C19.2420899,41.5694556 18.6589697,42.1525758 17.8917062,42.1525758 L13.3188162,42.1525758 C12.5515528,42.1525758 11.9684326,41.5694556 11.9684326,40.8021922 C11.9684326,37.1960541 11.9223968,33.5285349 11.9223968,29.9223968 L13.1039825,27.0374863 C9.58991597,26.9454147 10.5413226,24.1986116 11.0323712,24.1986116 L14.4236756,24.1986116 L16.6333942,19.2267446 C17.9377421,17.3699671 18.9351845,16.7868469 20.5157472,16.7868469 Z M38.9761052,30.1525758 C37.763829,30.1525758 36.7663866,31.1500183 36.7663866,32.3622945 C36.7663866,33.5745707 37.763829,34.5720132 38.9761052,34.5720132 C40.1883814,34.5720132 41.1858239,33.5745707 41.1858239,32.3622945 C41.1858239,31.1500183 40.1883814,30.1525758 38.9761052,30.1525758 Z M16.8942638,30.1525758 C15.6819876,30.1525758 14.6845451,31.1500183 14.6845451,32.3622945 C14.6845451,33.5745707 15.6819876,34.5720132 16.8942638,34.5720132 C18.10654,34.5720132 19.1039825,33.5745707 19.1039825,32.3622945 C19.1039825,31.1500183 18.10654,30.1525758 16.8942638,30.1525758 Z M16.2651078,25.7791743 L39.6359518,25.7791743 C38.9147242,24.2446474 38.2395323,22.618049 37.3801973,20.8533431 C36.8891487,20.0400438 36.3520643,19.2727804 35.3546218,19.1807088 L20.5004019,19.1807088 C19.5643405,19.2727804 18.965875,20.0400438 18.5208623,20.8533431 C17.6615272,22.618049 16.9863354,24.2446474 16.2651078,25.7791743 Z" id="Shape" fill-rule="nonzero"></path>
                        <path d="M27.9428571,55.8857143 C12.5104433,55.8857143 0,43.375271 0,27.9428571 C0,12.5104433 12.5104433,0 27.9428571,0 C43.375271,0 55.8857143,12.5104433 55.8857143,27.9428571 C55.8857143,43.375271 43.375271,55.8857143 27.9428571,55.8857143 Z M27.9428571,54.1714286 C42.4284972,54.1714286 54.1714286,42.4284972 54.1714286,27.9428571 C54.1714286,13.4572171 42.4284972,1.71428571 27.9428571,1.71428571 C13.4572171,1.71428571 1.71428571,13.4572171 1.71428571,27.9428571 C1.71428571,42.4284972 13.4572171,54.1714286 27.9428571,54.1714286 Z" id="Combined-Shape-Copy"></path>
                    </g>
                </g>
                <text id="Car-Mode" font-family="Verdana" font-size="13" font-weight="normal" fill="#464646">
                    <tspan x="26.1535645" y="97">Car Mode</tspan>
                </text>
            </g>
        </g>
    </g>
</svg>