<?xml version="1.0" encoding="UTF-8"?>
<svg width="21px" height="18px" viewBox="0 0 21 18" version="1.1" xmlns="http://www.w3.org/2000/svg" xmlns:xlink="http://www.w3.org/1999/xlink">
    <!-- Generator: sketchtool 53.2 (72643) - https://sketchapp.com -->
    <title>94681F46-31C6-45B4-B01D-081E61EAAC95</title>
    <desc>Created with sketchtool.</desc>
    <g id="Page-1" stroke="none" stroke-width="1" fill="none" fill-rule="evenodd">
        <g id="home_morning-brief" transform="translate(-287.000000, -285.000000)" fill="#FFC832">
            <g id="morning-brief/todays-meetings/tab+submenu" transform="translate(20.000000, 273.000000)">
                <g id="Group" transform="translate(239.000000, 11.000000)">
                    <g id="components/highlight/full" transform="translate(27.000000, 0.000000)">
                        <path d="M21.8200621,17.0734287 L12.6416969,1.63845675 C12.1343501,0.787181083 10.8659831,0.787181083 10.3586363,1.63845675 L1.18027107,17.0734287 C0.672924251,17.9247044 1.29557717,19 2.3102708,19 L20.6670012,19 C21.704756,19 22.3274089,17.9247044 21.8200621,17.0734287 Z M11.2393393,7.06720597 C11.7400972,6.94026136 12.2408551,7.19415059 12.4703692,7.65961419 C12.5538288,7.82887368 12.5746937,8.0192906 12.5538288,8.18855009 C12.512099,8.717486 12.4912341,9.2464219 12.4703692,9.79651525 C12.4286393,10.6216553 12.3660446,11.4679527 12.3243148,12.2930927 C12.3034499,12.546982 12.3034499,12.8008712 12.2825849,13.0759179 C12.26172,13.520224 11.9278814,13.858743 11.4897183,13.858743 C11.07242,13.858743 10.7177165,13.520224 10.6968516,13.0970753 C10.6342569,11.8064717 10.5507972,10.5158681 10.4882025,9.22526447 C10.4673376,8.88674549 10.4464726,8.52706907 10.4256077,8.18855009 C10.4256077,7.68077162 10.7594463,7.19415059 11.2393393,7.06720597 Z M11.5105832,16.7573118 C10.9263656,16.7573118 10.4673376,16.2706907 10.4673376,15.6782825 C10.4673376,15.0858743 10.9472305,14.5992533 11.5314481,14.5992533 C12.1156656,14.5992533 12.5746937,15.0858743 12.5746937,15.69944 C12.5538288,16.2706907 12.0739358,16.7573118 11.5105832,16.7573118 Z" id="Shape"></path>
                    </g>
                </g>
            </g>
        </g>
    </g>
</svg>