<?xml version="1.0" encoding="UTF-8"?>
<svg width="21px" height="21px" viewBox="0 0 21 21" version="1.1" xmlns="http://www.w3.org/2000/svg" xmlns:xlink="http://www.w3.org/1999/xlink">
    <!-- Generator: sketchtool 53.2 (72643) - https://sketchapp.com -->
    <title>9937E159-AD34-4767-9891-78A0F83BAE17</title>
    <desc>Created with sketchtool.</desc>
    <g id="Symbols" stroke="none" stroke-width="1" fill="none" fill-rule="evenodd">
        <g id="card-expand" transform="translate(-23.000000, -131.000000)" fill="#ABABAB">
            <g id="meeting/sample-copy-8">
                <g id="1">
                    <g id="icon/clock" transform="translate(23.000000, 131.000000)">
                        <g id="clock">
                            <path d="M10.5393258,0 C16.2808989,0 21,4.71910112 21,10.5393258 C21,16.2808989 16.2808989,21 10.5393258,21 C4.71910112,21 0,16.2808989 0,10.5393258 C0,4.71910112 4.71910112,0 10.5393258,0 Z M9.43820225,4.79775281 C9.43820225,3.7752809 11.011236,3.7752809 11.011236,4.79775281 L11.011236,10.3820225 L14.6292135,11.4044944 C15.5730337,11.7191011 15.1797753,13.2134831 14.1573034,12.9775281 L10.0674157,11.7191011 C9.6741573,11.6404494 9.43820225,11.3258427 9.43820225,10.9325843 L9.43820225,4.79775281 Z M10.5393258,1.57303371 C5.58426966,1.57303371 1.57303371,5.58426966 1.57303371,10.5393258 C1.57303371,15.4157303 5.58426966,19.4269663 10.5393258,19.4269663 C15.4157303,19.4269663 19.4269663,15.4157303 19.4269663,10.5393258 C19.4269663,5.58426966 15.4157303,1.57303371 10.5393258,1.57303371 Z" id="Shape"></path>
                        </g>
                    </g>
                </g>
            </g>
        </g>
    </g>
</svg>