<svg xmlns="http://www.w3.org/2000/svg" width="60" height="60" viewBox="0 0 60 60">
    <path fill="#464646" fill-rule="evenodd" d="M18.92 29.22c.054.256.08.517.08.779a4.029 4.029 0 0 1-1.17 2.827 4.001 4.001 0 0 1-1.3.87c-.242.1-.493.174-.75.224a3.844 3.844 0 0 1-1.56 0 3.903 3.903 0 0 1-1.44-.594 4.2 4.2 0 0 1-.61-.5A4.029 4.029 0 0 1 11 30c0-.262.026-.523.08-.78a3.923 3.923 0 0 1 .595-1.438 4.002 4.002 0 0 1 6.66 0c.146.217.27.448.37.69.096.242.168.493.215.749zm14.775-.752a4.001 4.001 0 0 0-.87-1.3 4 4 0 0 0-3.61-1.09 3.934 3.934 0 0 0-1.44.595 3.8 3.8 0 0 0-1.105 1.105 3.932 3.932 0 0 0-.595 1.44 4.026 4.026 0 0 0 1.095 3.61 4 4 0 0 0 1.3.87c.242.102.493.177.75.227A4 4 0 0 0 34 29.999c0-.262-.026-.524-.08-.78a3.932 3.932 0 0 0-.225-.75zm15 0a4.001 4.001 0 0 0-.87-1.3 4 4 0 0 0-3.61-1.09 3.934 3.934 0 0 0-1.44.595 3.8 3.8 0 0 0-1.105 1.105 3.932 3.932 0 0 0-.595 1.44 4.026 4.026 0 0 0 1.095 3.61 4 4 0 0 0 1.3.87c.242.102.493.177.75.227A4 4 0 0 0 49 29.999c0-.262-.026-.524-.08-.78a3.932 3.932 0 0 0-.225-.75z"/>
</svg>
