<?xml version="1.0" encoding="utf-8"?>
<!-- Generator: Adobe Illustrator 23.0.2, SVG Export Plug-In . SVG Version: 6.00 Build 0)  -->
<svg version="1.1" id="Layer_1" xmlns="http://www.w3.org/2000/svg" xmlns:xlink="http://www.w3.org/1999/xlink" x="0px" y="0px"
	 viewBox="0 0 30 30" style="enable-background:new 0 0 30 30;" xml:space="preserve">
<style type="text/css">
	.st0{fill-rule:evenodd;clip-rule:evenodd;fill:#D3D3D3;}
</style>
<title>025E8A04-CBA7-4EAC-8DB8-7A3575795CF5</title>
<desc>Created with sketchtool.</desc>
<g id="Page-1">
	<g transform="translate(27.000000, 17.000000)">
		<g id="PROFILE-Copy" transform="translate(2.057143, 2.057143)">
			<g id="Group" transform="translate(11.142857, 33.428571)">
			</g>
			<path id="Path" class="st0" d="M-14-11.9c2.6,0,4.8,2.1,4.8,4.8c0,2.7-2.1,4.8-4.8,4.8c-2.7,0-4.8-2.1-4.8-4.8
				C-18.9-9.7-16.7-11.9-14-11.9z"/>
			<path class="st0" d="M-17.7-1.2h7.2c3.3,0,5.1,2.6,5.1,5.6c-4.8,4.8-12.6,4.8-17.3,0C-22.7,1.5-20.9-1.2-17.7-1.2z"/>
			<path id="Combined-Shape" class="st0" d="M-14.1,10.4c-8,0-14.5-6.5-14.5-14.5s6.5-14.5,14.5-14.5S0.4-12,0.4-4.1
				S-6.1,10.4-14.1,10.4z M-14.1,9.5c7.5,0,13.6-6.1,13.6-13.6s-6.1-13.6-13.6-13.6s-13.6,6.1-13.6,13.6S-21.6,9.5-14.1,9.5z"/>
		</g>
	</g>
</g>
</svg>
