<?xml version="1.0" encoding="UTF-8"?>
<svg width="108px" height="108px" viewBox="0 0 108 108" version="1.1" xmlns="http://www.w3.org/2000/svg" xmlns:xlink="http://www.w3.org/1999/xlink">
    <!-- Generator: sketchtool 53.2 (72643) - https://sketchapp.com -->
    <title>A128D0D8-79AA-40EA-A386-DF39EDC2ECC9</title>
    <desc>Created with sketchtool.</desc>
    <g id="Page-1" stroke="none" stroke-width="1" fill="none" fill-rule="evenodd">
        <g id="car-mode_start" transform="translate(-248.000000, -313.000000)">
            <g id="components/meeting-notes" transform="translate(248.000000, 313.000000)">
                <rect id="Rectangle" stroke="#FFFFFF" stroke-width="2" x="1" y="1" width="105.155172" height="105.155172" rx="15"></rect>
                <text id="Meeting-Notes" font-family="Verdana" font-size="12" font-weight="normal" fill="#464646">
                    <tspan x="10.5228987" y="91.0623109">Meeting Notes</tspan>
                </text>
                <g id="icon/notes" transform="translate(28.000000, 21.000000)" fill="#464646" fill-rule="nonzero">
                    <path d="M50,35.2 L46.71875,2.2 C46.640625,1.65 46.40625,1.17857143 46.015625,0.864285714 C45.625,0.55 45.078125,0.392857143 44.609375,0.392857143 L19.765625,2.90714286 L8.59375,0.785714286 C8.046875,0.707142857 7.578125,0.785714286 7.109375,1.1 C6.71875,1.41428571 6.40625,1.80714286 6.328125,2.35714286 L0.078125,34.8857143 C-1.66533454e-16,35.4357143 0.078125,35.9071429 0.390625,36.3785714 C0.703125,36.7714286 1.09375,37.0857143 1.640625,37.1642857 L13.515625,39.4428571 C13.671875,39.6785714 13.828125,39.9928571 14.0625,40.15 C14.375,40.4642857 14.84375,40.6214286 15.3125,40.6214286 C15.390625,40.6214286 15.46875,40.6214286 15.46875,40.6214286 L17.96875,40.3857143 L35.234375,43.7642857 C35.3125,43.7642857 35.46875,43.7642857 35.546875,43.7642857 C35.859375,43.7642857 36.171875,43.6857143 36.40625,43.45 C36.71875,43.2142857 36.953125,42.8214286 37.03125,42.4285714 L37.734375,38.3428571 L48.203125,37.3214286 C48.75,37.2428571 49.21875,37.0071429 49.53125,36.6142857 C49.84375,36.2214286 50,35.75 50,35.2 Z M3.359375,34.3357143 L9.140625,4.16428571 L10.703125,4.32142857 C10.234375,4.71428571 10,5.34285714 10.078125,5.97142857 L13.046875,36.1428571 L3.359375,34.3357143 Z M34.21875,40.3071429 L28.75,39.2071429 L34.53125,38.6571429 L34.21875,40.3071429 Z M16.328125,37.4 L13.28125,6.75714286 L43.75,3.69285714 L46.796875,34.3357143 L16.328125,37.4 Z" id="Shape"></path>
                    <path d="M38.203125,9.66428571 L20.46875,11.7071429 C19.609375,11.7857143 18.984375,12.5714286 19.0625,13.4357143 C19.140625,14.2214286 19.84375,14.85 20.625,14.85 C20.703125,14.85 20.78125,14.85 20.78125,14.85 L38.515625,12.8071429 C39.375,12.7285714 40,11.9428571 39.921875,11.0785714 C39.84375,10.2142857 39.0625,9.58571429 38.203125,9.66428571 Z" id="Path"></path>
                    <path d="M30.9375,17.9928571 L21.25,19.0928571 C20.390625,19.1714286 19.765625,19.9571429 19.84375,20.8214286 C19.921875,21.6071429 20.625,22.2357143 21.40625,22.2357143 C21.484375,22.2357143 21.5625,22.2357143 21.5625,22.2357143 L31.25,21.1357143 C32.109375,21.0571429 32.734375,20.2714286 32.65625,19.4071429 C32.578125,18.5428571 31.796875,17.9142857 30.9375,17.9928571 Z" id="Path"></path>
                </g>
            </g>
        </g>
    </g>
</svg>