<?xml version="1.0" encoding="UTF-8"?>
<svg width="94px" height="94px" viewBox="0 0 94 94" version="1.1" xmlns="http://www.w3.org/2000/svg" xmlns:xlink="http://www.w3.org/1999/xlink">
    <!-- Generator: sketchtool 53.2 (72643) - https://sketchapp.com -->
    <title>872AFB0D-37F2-4CB5-BF02-A8DB2C4407A7</title>
    <desc>Created with sketchtool.</desc>
    <defs>
        <path d="M51,61.2 C56.61,61.2 61.2,56.61 61.2,51 L61.2,30.6 C61.2,24.99 56.61,20.4 51,20.4 C45.39,20.4 40.8,24.99 40.8,30.6 L40.8,51 C40.8,56.61 45.39,61.2 51,61.2 Z M45.9,30.6 C45.9,27.795 48.195,25.5 51,25.5 C53.805,25.5 56.1,27.795 56.1,30.6 L56.1,51 C56.1,53.805 53.805,56.1 51,56.1 C48.195,56.1 45.9,53.805 45.9,51 L45.9,30.6 Z M71.4,45.9 L71.4,51 C71.4,61.455 63.495,69.87 53.55,71.145 L53.55,76.5 L61.2,76.5 C62.73,76.5 63.75,77.52 63.75,79.05 C63.75,80.58 62.73,81.6 61.2,81.6 L40.8,81.6 C39.27,81.6 38.25,80.58 38.25,79.05 C38.25,77.52 39.27,76.5 40.8,76.5 L48.45,76.5 L48.45,71.145 C38.505,69.87 30.6,61.2 30.6,51 L30.6,45.9 C30.6,44.37 31.62,43.35 33.15,43.35 C34.68,43.35 35.7,44.37 35.7,45.9 L35.7,51 C35.7,59.415 42.585,66.3 51,66.3 C59.415,66.3 66.3,59.415 66.3,51 L66.3,45.9 C66.3,44.37 67.32,43.35 68.85,43.35 C70.38,43.35 71.4,44.37 71.4,45.9 Z" id="path-1"></path>
    </defs>
    <g id="Page-1" stroke="none" stroke-width="1" fill="none" fill-rule="evenodd">
        <g id="car-mode_start" transform="translate(-141.000000, -82.000000)">
            <g id="button/microphone/white" transform="translate(137.000000, 78.000000)">
                <circle id="Oval" stroke="#FFFFFF" stroke-width="2" fill-rule="nonzero" cx="51" cy="51" r="45.9"></circle>
                <mask id="mask-2" fill="white">
                    <use xlink:href="#path-1"></use>
                </mask>
                <use id="Mask" fill="#FFFFFF" fill-rule="nonzero" xlink:href="#path-1"></use>
            </g>
        </g>
    </g>
</svg>