<?xml version="1.0" encoding="UTF-8"?>
<svg width="12px" height="21px" viewBox="0 0 12 21" version="1.1" xmlns="http://www.w3.org/2000/svg" xmlns:xlink="http://www.w3.org/1999/xlink">
    <!-- Generator: sketchtool 53.2 (72643) - https://sketchapp.com -->
    <title>6BDA033E-5147-4C25-B09F-06D7FD4C20FD</title>
    <desc>Created with sketchtool.</desc>
    <g id="Page-1" stroke="none" stroke-width="1" fill="none" fill-rule="evenodd" stroke-linecap="round" stroke-linejoin="round">
        <g id="profile-news" transform="translate(-296.000000, -119.000000)" stroke="#FFFFFF">
            <g id="components/header/next-level">
                <g id="search" transform="translate(20.000000, 105.000000)">
                    <g id="search-field">
                        <g id="icon/microphone" transform="translate(277.000000, 15.306122)">
                            <path d="M5,13.2653057 L5,13.2653057 C3.35,13.2653057 2,11.8877547 2,10.2040813 L2,3.06122439 C2,1.37755097 3.35,0 5,0 C6.65,0 8,1.37755097 8,3.06122439 L8,10.2040813 C8,11.8877547 6.65,13.2653057 5,13.2653057 Z M5,15.3061219 L5,18.3673463 M1,18.3673463 L9,18.3673463 M10,7.1428569 L10,10.2040813 C10,13.0102036 7.75,15.3061219 5,15.3061219 C2.25,15.3061219 0,13.0102036 0,10.2040813 L0,7.1428569" id="lineart-copy"></path>
                        </g>
                    </g>
                </g>
            </g>
        </g>
    </g>
</svg>