<?xml version="1.0" encoding="UTF-8"?>
<svg width="108px" height="108px" viewBox="0 0 108 108" version="1.1" xmlns="http://www.w3.org/2000/svg" xmlns:xlink="http://www.w3.org/1999/xlink">
    <!-- Generator: sketchtool 53.2 (72643) - https://sketchapp.com -->
    <title>C9B97BCC-EF7E-48AE-898C-09D45FE10EBC</title>
    <desc>Created with sketchtool.</desc>
    <g id="Page-1" stroke="none" stroke-width="1" fill="none" fill-rule="evenodd">
        <g id="car-mode_start" transform="translate(-20.000000, -313.000000)">
            <g id="components/morning-brief" transform="translate(20.000000, 313.000000)">
                <rect id="Rectangle" stroke="#FFFFFF" stroke-width="2" x="1" y="1" width="105.155172" height="105.155172" rx="15"></rect>
                <text id="Morning-Brief" font-family="Verdana" font-size="12" font-weight="normal" fill="#464646">
                    <tspan x="13.2270003" y="91.0623109">Morning Brief</tspan>
                </text>
                <g id="icon/brief" transform="translate(34.778433, 17.263158)" fill="#464646" fill-rule="evenodd" stroke-width="1">
                    <g id="noun_brief_1876905">
                        <g id="Group" fill-rule="nonzero">
                            <path d="M30.875,3.6 L28.5,3.6 C28.5,1.6117749 26.9050144,-8.8817842e-16 24.9375,-8.8817842e-16 L13.0625,-8.8817842e-16 C11.0949856,-8.8817842e-16 9.5,1.6117749 9.5,3.6 L7.125,3.6 C3.18997116,3.6 -1.77635684e-15,6.8235498 -1.77635684e-15,10.8 L-1.77635684e-15,40.8 C-1.77635684e-15,44.7764502 3.18997116,48 7.125,48 L30.875,48 C34.8100288,48 38,44.7764502 38,40.8 L38,10.8 C38,6.8235498 34.8100288,3.6 30.875,3.6 Z M14.25,3.6 L23.75,3.6 C24.4058381,3.6 24.9375,4.1372583 24.9375,4.8 L24.9375,6 C24.9375,6.6627417 24.4058381,7.2 23.75,7.2 L14.25,7.2 C13.5941619,7.2 13.0625,6.6627417 13.0625,6 L13.0625,4.8 C13.0625,4.1372583 13.5941619,3.6 14.25,3.6 Z M34.4375,40.8 C34.4375,42.7882251 32.8425144,44.4 30.875,44.4 L7.125,44.4 C5.15748558,44.4 3.5625,42.7882251 3.5625,40.8 L3.5625,10.8 C3.5625,8.8117749 5.15748558,7.2 7.125,7.2 L9.5,7.2 C9.5,8.15477936 9.87533374,9.07045345 10.5434321,9.74558441 C11.2115304,10.4207154 12.1176663,10.8 13.0625,10.8 L24.9375,10.8 C26.9050144,10.8 28.5,9.1882251 28.5,7.2 L30.875,7.2 C32.8425144,7.2 34.4375,8.8117749 34.4375,10.8 L34.4375,40.8 Z" id="Shape"></path>
                            <path d="M18.40625,33.6 L11.28125,33.6 C10.2974928,33.6 9.5,34.4058875 9.5,35.4 C9.5,36.3941125 10.2974928,37.2 11.28125,37.2 L18.40625,37.2 C19.3900072,37.2 20.1875,36.3941125 20.1875,35.4 C20.1875,34.4058875 19.3900072,33.6 18.40625,33.6 Z" id="Path"></path>
                            <path d="M26.71875,25.2 L11.28125,25.2 C10.2974928,25.2 9.5,26.0058875 9.5,27 C9.5,27.9941125 10.2974928,28.8 11.28125,28.8 L26.71875,28.8 C27.7025072,28.8 28.5,27.9941125 28.5,27 C28.5,26.0058875 27.7025072,25.2 26.71875,25.2 L26.71875,25.2 Z" id="Path"></path>
                            <path d="M26.71875,16.8 L11.28125,16.8 C10.2974928,16.8 9.5,17.6058875 9.5,18.6 C9.5,19.5941125 10.2974928,20.4 11.28125,20.4 L26.71875,20.4 C27.7025072,20.4 28.5,19.5941125 28.5,18.6 C28.5,17.6058875 27.7025072,16.8 26.71875,16.8 Z" id="Path"></path>
                        </g>
                    </g>
                </g>
            </g>
        </g>
    </g>
</svg>