<?xml version="1.0" encoding="UTF-8"?>
<svg width="10px" height="6px" viewBox="0 0 10 6" version="1.1" xmlns="http://www.w3.org/2000/svg" xmlns:xlink="http://www.w3.org/1999/xlink">
    <!-- Generator: sketchtool 53.2 (72643) - https://sketchapp.com -->
    <title>937F8DD2-4F90-41DA-838A-9D3ABD65DC5F</title>
    <desc>Created with sketchtool.</desc>
    <g id="Page-1" stroke="none" stroke-width="1" fill="none" fill-rule="evenodd">
        <g id="meetings" transform="translate(-182.000000, -1194.000000)" fill="#ABABAB">
            <g id="components/button/toggle-down-copy-4" transform="translate(0.000000, 1190.000000)">
                <path d="M182,5.05606258 C182,4.78487614 182.105235,4.52411995 182.305183,4.31551499 C182.715601,3.90873533 183.389108,3.90873533 183.799526,4.31551499 L186.998685,7.47588005 L190.197843,4.30508475 C190.608261,3.89830508 191.281768,3.89830508 191.692186,4.30508475 C192.102605,4.71186441 192.102605,5.37940026 191.692186,5.78617992 L187.745856,9.69752282 C187.545909,9.89569752 187.28282,10 186.998685,10 C186.714549,10 186.45146,9.88526728 186.251513,9.69752282 L182.305183,5.79661017 C182.105235,5.58800522 182,5.31681877 182,5.05606258 Z" id="Path" transform="translate(187.000000, 7.000000) rotate(180.000000) translate(-187.000000, -7.000000) "></path>
            </g>
        </g>
    </g>
</svg>