<?xml version="1.0" encoding="UTF-8"?>
<svg width="11px" height="11px" viewBox="0 0 11 11" version="1.1" xmlns="http://www.w3.org/2000/svg" xmlns:xlink="http://www.w3.org/1999/xlink">
    <!-- Generator: sketchtool 53.2 (72643) - https://sketchapp.com -->
    <title>40B4378D-B85C-47F9-8A60-84801DE3B218</title>
    <desc>Created with sketchtool.</desc>
    <g id="Symbols" stroke="none" stroke-width="1" fill="none" fill-rule="evenodd">
        <g id="card-doctor" transform="translate(-25.000000, -110.000000)" fill="#464646" fill-rule="nonzero">
            <g id="PHONE" transform="translate(25.000000, 110.000000)">
                <path d="M9.61800358,10.5226122 C8.43675705,11.7035873 5.4324844,10.6187021 2.90567097,8.09246922 C0.378857544,5.56623637 -0.703176673,2.56575367 0.47806985,1.38477856 L1.70272176,0.160408037 C1.91664829,-0.0534693456 2.26389136,-0.0534693456 2.4778179,0.160408037 L3.72727288,1.40957594 C3.94119942,1.62345332 3.94119942,1.97061661 3.72727288,2.18449399 L2.87466713,3.03690385 C2.2173856,3.69403436 2.79405713,5.36475768 4.19853134,6.76890919 C5.60300555,8.1730607 7.30511668,8.78059645 7.96239821,8.12346595 L8.81500397,7.27105609 C9.02893051,7.05717871 9.37617358,7.05717871 9.59010011,7.27105609 L10.8395551,8.52022399 C11.0534816,8.73410137 11.0534816,9.08126466 10.8395551,9.29514204 L9.61800358,10.5226122 Z" id="Path"></path>
                <path d="M9.19688961,10.0459634 C9.17634287,10.0665051 9.15579612,10.0870467 9.13231413,10.1046539 C9.12350838,10.1134574 9.0706739,10.1545407 9.09415589,10.1369336 C9.11763788,10.1193265 9.0530624,10.1662788 9.04425665,10.1721479 C9.02077466,10.1868205 8.99435742,10.2044276 8.97087542,10.2191002 C8.92391143,10.2455109 8.8740122,10.2719216 8.82411296,10.2924632 C8.8740122,10.2689871 8.80356622,10.2983323 8.78595472,10.3071358 C8.75660223,10.3188739 8.72724974,10.3276775 8.69789724,10.336481 C8.64212751,10.3540882 8.58635777,10.3658263 8.53058804,10.3775643 C8.4983003,10.3834334 8.4689478,10.3893024 8.43666006,10.3951715 C8.43372481,10.3951715 8.38969608,10.4010405 8.41904857,10.398106 C8.45133631,10.3951715 8.39263133,10.4010405 8.38676083,10.4010405 C8.25173936,10.4127786 8.11965315,10.4157131 7.98756693,10.4098441 C7.69991251,10.3951715 7.43574008,10.3423501 7.13634466,10.2543144 C6.80759674,10.1604098 6.48765458,10.0342254 6.17945341,9.88456478 C4.61496557,9.12745832 3.23833369,7.90963203 2.18457921,6.5333416 C1.70319834,5.90535407 1.26878146,5.21574159 0.966450786,4.4821113 C0.728695599,3.90694515 0.561386393,3.32004091 0.596609384,2.71846407 C0.599544633,2.68618434 0.602479882,2.65097008 0.605415131,2.61869035 C0.605415131,2.60401775 0.608350381,2.58934514 0.61128563,2.57760706 C0.61128563,2.5834761 0.605415131,2.62162487 0.61128563,2.58641062 C0.620091377,2.52478567 0.631832374,2.46022621 0.64944387,2.39860126 C0.664120116,2.34284536 0.678796362,2.28708946 0.699343106,2.23426808 C0.705213605,2.21959547 0.731630848,2.14916696 0.7228251,2.17264313 C0.714019353,2.1961193 0.743371845,2.12862532 0.749242343,2.11688723 C0.772724337,2.06700037 0.802076829,2.02004803 0.831429322,1.97603021 C0.846105568,1.95255405 0.863717063,1.92907788 0.881328558,1.90560171 C0.849040817,1.94961952 0.893069555,1.8909291 0.904810552,1.87919102 C0.937098294,1.84104224 0.975256534,1.80582799 1.01047952,1.77061373 C1.32748644,1.45368545 1.64155811,1.13969168 1.95856502,0.822763394 C2.0466225,0.734727758 2.14935622,0.590936221 2.28437769,0.590936221 C2.4223344,0.590936221 2.52506812,0.73766228 2.6131256,0.825697915 C2.93306777,1.14556072 3.25007468,1.46248901 3.57001685,1.78235182 C3.68155632,1.89386362 3.7461318,2.02298255 3.62578658,2.16090505 C3.50837661,2.29589302 3.3704199,2.41620839 3.24420418,2.5423928 C2.93600302,2.85051752 2.58670836,3.12929704 2.50745663,3.5812133 C2.38711141,4.26495673 2.67476583,4.97217633 3.01525474,5.55614605 C3.47608887,6.34553224 4.1159732,7.02634115 4.84391501,7.57803114 C5.4456411,8.03581644 6.15597142,8.42610775 6.91620096,8.51707791 C7.20385539,8.55229217 7.49738031,8.52294695 7.76155274,8.39969706 C7.9259267,8.32339951 8.04920717,8.1972151 8.17542288,8.07103069 C8.34566734,7.90082846 8.51884704,7.72769172 8.6890915,7.55748949 C8.79476047,7.45184672 8.91217044,7.2816445 9.07947964,7.32859684 C9.19395436,7.36087657 9.29962334,7.50466811 9.37887506,7.5868347 C9.55499002,7.76290597 9.72816972,7.93604272 9.90428468,8.11211399 C10.0451766,8.25297101 10.1831334,8.3908935 10.3240253,8.53175052 C10.4326295,8.6403278 10.473723,8.77238125 10.3592483,8.89856566 C10.0803996,9.20375587 9.77219846,9.4854699 9.47867354,9.77892202 C9.37887506,9.86402313 9.28788234,9.95499329 9.19688961,10.0459634 C8.92978193,10.3130049 9.34365207,10.7297069 9.61075975,10.4597309 C9.89841418,10.1721479 10.1890039,9.88163026 10.4766583,9.59404718 C10.579392,9.49133894 10.685061,9.39449974 10.7819242,9.28592246 C11.0813196,8.95138704 11.0695786,8.47306009 10.7643127,8.14732824 C10.473723,7.83920352 10.1625866,7.5457514 9.86025594,7.24349572 C9.75458697,7.13785296 9.65185324,7.02047211 9.53444327,6.92363291 C9.19982486,6.6448534 8.73312024,6.68006766 8.42491907,6.97351977 C8.14607039,7.23762668 7.88189796,7.51934071 7.60891978,7.78931666 C7.60011403,7.79812022 7.59130829,7.80692379 7.58250254,7.81279283 C7.5502148,7.84213804 7.62066078,7.78638214 7.58250254,7.81279283 C7.56195579,7.82746544 7.54140905,7.83920352 7.52086231,7.8509416 C7.50325081,7.85974517 7.43867533,7.8920249 7.48857456,7.87148325 C7.45628682,7.88322134 7.42399908,7.89495942 7.39171134,7.90376299 C7.36235885,7.91256655 7.33007111,7.91843559 7.30071861,7.92430463 C7.23614313,7.93897724 7.30365386,7.92723916 7.25375463,7.93017368 C7.18330864,7.93604272 7.11579791,7.93604272 7.04535193,7.9331082 C6.77237375,7.91843559 6.43482009,7.81572735 6.15303617,7.68660842 C5.33116638,7.30805519 4.61790082,6.7006093 4.04259197,6.00806231 C3.76667855,5.67646141 3.52598811,5.31258079 3.33813216,4.92228947 C3.26181568,4.76675985 3.20017545,4.60536119 3.15027621,4.441028 C3.10624747,4.29723646 3.07102448,4.12703424 3.06221873,4.01552243 C3.05634823,3.94509392 3.05634823,3.87466541 3.05928348,3.80423691 C3.06221873,3.77489169 3.06221873,3.74554648 3.06515398,3.71913579 C3.05928348,3.77195717 3.07395973,3.6780525 3.07689498,3.66044537 C3.08276548,3.63110016 3.09450647,3.60175495 3.10331222,3.57240973 C3.10624747,3.56067165 3.11211797,3.54893356 3.11505322,3.53426096 C3.09744172,3.58414782 3.10918272,3.54599904 3.11505322,3.53426096 C3.12679422,3.51078479 3.13853521,3.49024314 3.15027621,3.46676697 C3.15908196,3.45209437 3.21191644,3.37873134 3.17669345,3.42568367 C3.28823292,3.2906957 3.42618964,3.17331485 3.5494701,3.05006496 C3.70503831,2.89453534 3.86060652,2.74194024 4.01323948,2.58641062 C4.28621766,2.30763111 4.36253414,1.87332197 4.1335847,1.54172108 C4.03965672,1.40673311 3.90757051,1.29228678 3.79016054,1.17490593 C3.60523984,0.990031101 3.42031914,0.805156267 3.23833369,0.623215954 C3.11211797,0.497031543 2.9888375,0.367912612 2.85968654,0.244662722 C2.56909686,-0.0341167891 2.12587423,-0.0898726914 1.79419107,0.156627087 C1.6650401,0.253466286 1.55643588,0.376716175 1.44489641,0.491162501 C1.25704046,0.678971856 1.06918451,0.866781211 0.878393309,1.05752509 C0.581933137,1.35391173 0.297213963,1.62388767 0.141645754,2.02591707 C-0.0726274397,2.5834761 -0.0139224552,3.22613623 0.121099009,3.79543334 C0.303084461,4.54960528 0.64944387,5.26856297 1.05450826,5.92589571 C2.0348815,7.51934071 3.42912489,8.91617279 5.01415947,9.90804095 C5.67459054,10.3218084 6.3937266,10.673951 7.1510209,10.8646948 C7.7233945,11.0084864 8.36914933,11.0759804 8.93858768,10.8705639 C9.18808387,10.7795937 9.4170333,10.6475403 9.6078245,10.4597309 C9.88080268,10.1985585 9.46693254,9.78185654 9.19688961,10.0459634 Z" id="Path"></path>
            </g>
        </g>
    </g>
</svg>