<?xml version="1.0" encoding="UTF-8"?>
<svg width="108px" height="108px" viewBox="0 0 108 108" version="1.1" xmlns="http://www.w3.org/2000/svg" xmlns:xlink="http://www.w3.org/1999/xlink">
    <!-- Generator: sketchtool 53.2 (72643) - https://sketchapp.com -->
    <title>A9AF30F8-A448-4F44-B02D-F122FB8D68C8</title>
    <desc>Created with sketchtool.</desc>
    <g id="Page-1" stroke="none" stroke-width="1" fill="none" fill-rule="evenodd">
        <g id="car-mode_start" transform="translate(-134.000000, -313.000000)">
            <g id="components/prep-meeting" transform="translate(134.000000, 313.000000)">
                <rect id="Rectangle" stroke="#FFFFFF" stroke-width="2" x="1" y="1" width="105.155172" height="105.155172" rx="15"></rect>
                <text id="Prep-Meeting" font-family="Verdana" font-size="12" font-weight="normal" fill="#464646">
                    <tspan x="14.2260237" y="91.0623109">Prep Meeting</tspan>
                </text>
                <g id="icon/meeting" transform="translate(29.000000, 17.000000)" fill="#464646" fill-rule="evenodd" stroke-width="1">
                    <g id="Group">
                        <path d="M0.753219074,25 C0.753219074,26.022678 1.58239296,26.8518519 2.60507093,26.8518519 L14.7451895,26.8518519 L9.57302519,32.0240162 C8.84964556,32.7469437 8.84964556,33.919723 9.57302519,34.6426505 C9.934715,35.0043403 10.4085286,35.1851852 10.8823423,35.1851852 C11.356156,35.1851852 11.8299696,35.0043403 12.1916594,34.6426505 L20.523806,26.3105039 C20.6102725,26.2242069 20.6876402,26.1289243 20.7557961,26.0269165 C20.7860311,25.9817053 20.8067153,25.9327076 20.8325421,25.8855749 C20.8646986,25.8269698 20.9001329,25.7704558 20.9259033,25.7081773 C20.951052,25.6473682 20.9655762,25.583903 20.9839432,25.5212289 C20.9995976,25.4682187 21.0200557,25.4175256 21.0309629,25.3626506 C21.0785477,25.1232571 21.0785477,24.8767429 21.0309629,24.6373494 C21.0200556,24.5824744 20.9995976,24.5317812 20.9839432,24.4787711 C20.9655762,24.416097 20.951052,24.3526318 20.9259033,24.2918227 C20.900133,24.2295443 20.8646986,24.1730302 20.8325421,24.1144251 C20.8067152,24.0672924 20.7860311,24.0182947 20.7557961,23.9730835 C20.6876402,23.8710756 20.6102725,23.7757931 20.523806,23.6894961 L12.1916594,15.3573495 C11.4682798,14.6339699 10.2964048,14.6339699 9.57302519,15.3573495 C8.84964556,16.080277 8.84964556,17.2530563 9.57302519,17.9759838 L14.7451895,23.1481481 L2.60507093,23.1481481 C1.58239296,23.1481481 0.753219074,23.977322 0.753219074,25 Z" id="Path" fill-rule="nonzero"></path>
                        <path d="M40.4269748,15.3573495 C39.7035952,14.6339699 38.5317202,14.6339699 37.8083406,15.3573495 L29.476194,23.6894961 C29.3897275,23.7757931 29.3123598,23.8710757 29.2442039,23.9730835 C29.2139689,24.0182947 29.1932847,24.0672924 29.1674579,24.1144251 C29.1353014,24.1730302 29.0998671,24.2295442 29.0740967,24.2918227 C29.048948,24.3526318 29.0344238,24.416097 29.0160568,24.4787711 C29.0004024,24.5317813 28.9799443,24.5824744 28.9690371,24.6373494 C28.9214523,24.8767429 28.9214523,25.1232571 28.9690371,25.3626506 C28.9799444,25.4175256 29.0004024,25.4682188 29.0160568,25.5212289 C29.0344238,25.583903 29.048948,25.6473682 29.0740967,25.7081773 C29.099867,25.7704557 29.1353014,25.8269698 29.1674579,25.8855749 C29.1932848,25.9327076 29.2139689,25.9817053 29.2442039,26.0269165 C29.3123598,26.1289244 29.3897275,26.2242069 29.476194,26.3105039 L37.8083406,34.6426505 C38.1700304,35.0043403 38.6438441,35.1851852 39.1176577,35.1851852 C39.5914713,35.1851852 40.065285,35.0043403 40.4269748,34.6426505 C41.1503544,33.919723 41.1503544,32.7469437 40.4269748,32.0240162 L35.2548105,26.8518519 L47.3949291,26.8518519 C48.417607,26.8518519 49.2467809,26.022678 49.2467809,25 C49.2467809,23.977322 48.417607,23.1481481 47.3949291,23.1481481 L35.2548105,23.1481481 L40.4269748,17.9759838 C41.1503544,17.2530563 41.1503544,16.080277 40.4269748,15.3573495 Z" id="Path" fill-rule="nonzero"></path>
                        <path d="M25,49.2467809 C26.022678,49.2467809 26.8518519,48.417607 26.8518519,47.3949291 L26.8518519,35.2546974 L32.0240162,40.4265227 C32.385706,40.7882125 32.8595196,40.9690574 33.3333333,40.9690574 C33.807147,40.9690574 34.2809606,40.7882125 34.6426505,40.4265227 C35.3660301,39.7035952 35.3660301,38.5308159 34.6426505,37.8078884 L26.3105039,29.4757419 C26.2240939,29.3891623 26.1286982,29.3117946 26.0265774,29.2435822 C25.9826094,29.2141949 25.9349117,29.194189 25.8891353,29.1689837 C25.8292869,29.135923 25.7715295,29.099867 25.7078948,29.0735315 C25.6477074,29.0486653 25.5850333,29.0344238 25.5230374,29.0161697 C25.4694621,29.0002893 25.4180908,28.9796052 25.3625376,28.9685849 C25.1232006,28.9209436 24.8767994,28.9209436 24.6374625,28.9685849 C24.5819092,28.9796052 24.530538,29.0002893 24.4769627,29.0161697 C24.4149668,29.0344238 24.3522927,29.0486653 24.2921053,29.0735315 C24.2284705,29.099867 24.1707131,29.135923 24.1108648,29.1689837 C24.0650884,29.194189 24.0173906,29.2141949 23.9734227,29.2435822 C23.8713019,29.3117946 23.7759061,29.3891624 23.6894962,29.4757419 L15.3573496,37.8078884 C14.63397,38.5308159 14.63397,39.7035952 15.3573496,40.4265227 C16.0807293,41.1499023 17.2526043,41.1499023 17.9759839,40.4265227 L23.1481481,35.2546974 L23.1481481,47.3949291 C23.1481481,48.417607 23.977322,49.2467809 25,49.2467809 Z" id="Path" fill-rule="nonzero"></path>
                        <path d="M25,0.753219074 C23.977322,0.753219074 23.1481481,1.58239296 23.1481481,2.60507093 L23.1481481,14.7453026 L17.9759838,9.57347731 C17.2526042,8.85009769 16.0807292,8.85009769 15.3573495,9.57347731 C14.6339699,10.2964048 14.6339699,11.4691841 15.3573495,12.1921116 L23.6894961,20.5242581 C23.7759061,20.6108377 23.8713018,20.6882054 23.9734226,20.7564178 C24.017447,20.7858051 24.0650883,20.805811 24.1108647,20.8310163 C24.1707131,20.864077 24.2284705,20.900133 24.2921052,20.9264685 C24.3522926,20.9513347 24.4149667,20.9655762 24.4769626,20.9838303 C24.5305379,20.9997107 24.5819092,21.0203948 24.6374624,21.0314151 C24.7571027,21.0552074 24.8784383,21.0679796 25,21.0679796 C25.1215617,21.0679796 25.2428973,21.0552075 25.3625375,21.0314151 C25.4180908,21.0203948 25.469462,20.9997107 25.5230373,20.9838303 C25.5850332,20.9655762 25.6477073,20.9513347 25.7078947,20.9264685 C25.7715295,20.900133 25.8292869,20.864077 25.8891352,20.8310163 C25.9349116,20.805811 25.9825529,20.7858051 26.0265773,20.7564178 C26.1286981,20.6882054 26.2240939,20.6108376 26.3105038,20.5242581 L34.6426504,12.1921116 C35.36603,11.4691841 35.36603,10.2964048 34.6426504,9.57347731 C33.9192707,8.85009769 32.7473957,8.85009769 32.0240161,9.57347731 L26.8518519,14.7453026 L26.8518519,2.60507093 C26.8518519,1.58239296 26.022678,0.753219074 25,0.753219074 Z" id="Path" fill-rule="nonzero"></path>
                    </g>
                </g>
            </g>
        </g>
    </g>
</svg>