<?xml version="1.0" encoding="UTF-8"?>
<svg width="350px" height="350px" viewBox="0 0 350 350" version="1.1" xmlns="http://www.w3.org/2000/svg" xmlns:xlink="http://www.w3.org/1999/xlink">
    <!-- Generator: sketchtool 53.2 (72643) - https://sketchapp.com -->
    <title>DC0AE2B4-7015-4787-AD8E-B71A9DAFF346</title>
    <desc>Created with sketchtool.</desc>
    <g id="Symbols" stroke="none" stroke-width="1" fill="none" fill-rule="evenodd">
        <g id="button/profile/black">
            <g id="PROFILE-Copy" transform="translate(12.000000, 12.000000)">
                <g id="Group" transform="translate(65.000000, 195.000000)"></g>
                <path d="M163.44757,74.8286445 C192.987212,74.8286445 217.15601,98.9974425 217.15601,128.537084 C217.15601,158.971867 192.987212,183.140665 163.44757,183.140665 C133.012788,183.140665 108.84399,158.971867 108.84399,128.537084 C108.84399,98.9974425 133.012788,74.8286445 163.44757,74.8286445 Z" id="Path" fill="#464646"></path>
                <path d="M122.2711,195.672634 L203.7289,195.672634 C240.429668,195.672634 261.017903,225.212276 261.017903,259.227621 C207.309463,313.831202 118.690537,313.831202 65.8772379,259.227621 C65.8772379,225.212276 85.5703325,195.672634 122.2711,195.672634 Z" id="Path" fill="#464646"></path>
                <path d="M163,326 C72.9775858,326 0,253.022414 0,163 C0,72.9775858 72.9775858,0 163,0 C253.022414,0 326,72.9775858 326,163 C326,253.022414 253.022414,326 163,326 Z M163,316 C247.499567,316 316,247.499567 316,163 C316,78.5004333 247.499567,10 163,10 C78.5004333,10 10,78.5004333 10,163 C10,247.499567 78.5004333,316 163,316 Z" id="Combined-Shape" fill="#464646"></path>
            </g>
        </g>
    </g>
</svg>