<?xml version="1.0" encoding="utf-8"?>
<!-- Generator: Adobe Illustrator 23.0.2, SVG Export Plug-In . SVG Version: 6.00 Build 0)  -->
<svg version="1.1" id="Layer_1" xmlns="http://www.w3.org/2000/svg" xmlns:xlink="http://www.w3.org/1999/xlink" x="0px" y="0px"
	 viewBox="0 0 281 157" style="enable-background:new 0 0 281 157;" xml:space="preserve">
<style type="text/css">
	.st0{fill:none;stroke:#000000;stroke-linecap:round;stroke-linejoin:round;stroke-miterlimit:10;}
</style>
<path class="st0" d="M0.2,67.8c0,0,7,25.6,17.9,14.5s12.5-10.4,21.7-1.5S51.4,72,51.4,72s6.8-57.8,15.8-35.5
	c9,22.3,8.2,50.7,11.1,67.6c0.4,2.7,5.4,18.1,10.8,0c5.4-18.1,8.1-31.3,14.2-22.6s7.6,56.2,12.1,64.7c3.2,6.1,7,6.7,9.3-15.6
	s11.1-113.7,11.1-113.7s4.1-21.7,9.8,0c5.7,21.7,9.9,59.9,9.9,59.9s3.6,11.9,13,2.1c9.4-9.8,16.1,1,16.3,1.6c0.2,0.7,8.3,9,12.5-2.9
	s13-25.9,17.6-10.1s9,39.9,9,39.9s5.4,20.4,12.1,2.3c6.7-18.1,8.5-31.4,14.2-30.8c5.7,0.6,12.5,13.3,12.5,13.3s5.5,10.4,18.2-12.5"
	/>
</svg>
